<svg id="Camada_1" data-name="Camada 1" xmlns="http://www.w3.org/2000/svg" viewBox="0 0 51.4 51.4"><title>Ícones e Fotos do novo site</title><path d="M0,0V51.4H51.4V0ZM31.68,14.79h10v2.49h-10ZM22.14,36.86a11,11,0,0,1-4.73.89H5.72V13.19H18.57c1.59,0,6.52.95,6.55,5.68a5.57,5.57,0,0,1-3.38,5.49s4.09,1.22,4.41,4.83S25.82,35,22.14,36.86Zm23.49-6.78H32.74a4.17,4.17,0,0,0,4.31,4.53,4.52,4.52,0,0,0,4-2.39h4.22c-1.16,4.22-4.56,6-8.57,6-5.26,0-9-4.22-9-9.42a9.21,9.21,0,0,1,9-9.42,9.21,9.21,0,0,1,9,9.42C45.68,29.24,45.66,29.67,45.63,30.08Z"/><path d="M19.92,20.24c0-2.89-3.26-2.82-3.26-2.82H11.12v5.63h5.53S19.92,23.13,19.92,20.24Z"/><path d="M17,26.87H11.12v6.72H17s3.89.09,3.89-3.36S17,26.87,17,26.87Z"/><path d="M36.71,23.11a4.08,4.08,0,0,0-4,3.83h7.92A4.08,4.08,0,0,0,36.71,23.11Z"/></svg>
