<svg id="Camada_1" data-name="Camada 1" xmlns="http://www.w3.org/2000/svg" viewBox="0 0 50.72 50.72"><title>Ícones e Fotos do novo site</title><path d="M43.88,0h-37A6.83,6.83,0,0,0,0,6.83V43.88a6.83,6.83,0,0,0,6.83,6.83H25.11l0-18.12H20.43a1.11,1.11,0,0,1-1.11-1.11l0-5.84a1.11,1.11,0,0,1,1.11-1.12h4.7V18.89c0-6.55,4-10.12,9.84-10.12h4.8a1.11,1.11,0,0,1,1.11,1.11V14.8a1.11,1.11,0,0,1-1.11,1.11H36.81c-3.18,0-3.79,1.51-3.79,3.73v4.89h7a1.11,1.11,0,0,1,1.1,1.24l-.69,5.84a1.11,1.11,0,0,1-1.1,1H33l0,18.12H43.88a6.83,6.83,0,0,0,6.83-6.83V6.83A6.83,6.83,0,0,0,43.88,0Z"/></svg>