<svg id="Camada_1" data-name="Camada 1" xmlns="http://www.w3.org/2000/svg" viewBox="0 0 36.87 36.87"><defs><style>.cls-1{fill:#73c3e1;}</style></defs><title>Ícone Facebook redondo</title><path class="cls-1" d="M0,18.43A18.44,18.44,0,1,1,18.41,36.87,18.38,18.38,0,0,1,0,18.43Zm23.62-7.59V7a41.92,41.92,0,0,0-4.48,0,3.82,3.82,0,0,0-3.5,3.13,13.91,13.91,0,0,0-.24,2.31c0,.59,0,1.19,0,1.86H13.21v4h2.2V29.64h4.67v-.94c0-3.17,0-6.33,0-9.49,0-.77.23-1,.95-.91s1.49,0,2.28,0l.42-4H20.08c0-.77,0-1.47,0-2.17,0-1,.35-1.31,1.32-1.32Z"/></svg>