<svg id="Camada_1" data-name="Camada 1" xmlns="http://www.w3.org/2000/svg" viewBox="0 0 50.2 50.2"><title>Ícones e Fotos do novo site</title><path d="M50.19,10.05a10,10,0,0,0-10-10Q25.09,0,10,0A9.29,9.29,0,0,0,8,.2a10,10,0,0,0-8,10q0,7.43,0,14.87c0,5,0,10,0,15A10.13,10.13,0,0,0,.2,42.17a10,10,0,0,0,10,8H40a10.52,10.52,0,0,0,1.56-.11,10,10,0,0,0,8.6-10Q50.2,25.08,50.19,10.05ZM25.06,15.44a9.67,9.67,0,1,1-9.69,9.66A9.64,9.64,0,0,1,25.06,15.44ZM44.3,22q0,9.44,0,18.88a3.16,3.16,0,0,1-3.46,3.47H9.16a3.14,3.14,0,0,1-3.33-2.46,2.56,2.56,0,0,1-.07-.62q0-9.79,0-19.57c0-.1,0-.2,0-.37H10c-1.16,5.7.12,10.71,4.29,14.81A14.82,14.82,0,0,0,26,40.5,15.5,15.5,0,0,0,40,21.37H44.3Zm-.13-8.86a3,3,0,0,1-3,2.4c-1.15,0-2.3,0-3.45,0a3.16,3.16,0,0,1-3.1-3.15c0-1.11,0-2.22,0-3.32A3.16,3.16,0,0,1,37.89,5.9h3.26A3.14,3.14,0,0,1,44.3,9c0,.56,0,1.13,0,1.69h0A16.73,16.73,0,0,1,44.17,13.16Z"/></svg>