<svg id="Camada_1" data-name="Camada 1" xmlns="http://www.w3.org/2000/svg" viewBox="0 0 51.4 51.4"><title>Ícones e Fotos do novo site</title><path d="M0,27.26V24.14a2.17,2.17,0,0,0,.07-.31A26,26,0,0,1,1.78,16.3,25.7,25.7,0,0,1,13,3.37,25.21,25.21,0,0,1,22.28.24L24.14,0h3.12l.32.07c1.29.2,2.61.32,3.88.6A24.92,24.92,0,0,1,42.77,6.49a25.63,25.63,0,0,1,8.39,15.79l.24,1.86v3.12c-.08.62-.16,1.24-.24,1.86a24.64,24.64,0,0,1-2.56,8.25,25.51,25.51,0,0,1-7.94,9.22,25.11,25.11,0,0,1-11.57,4.57l-1.82.24H24.14l-1.82-.24A24.54,24.54,0,0,1,14,48.59a25.49,25.49,0,0,1-9.22-7.94A25.11,25.11,0,0,1,.24,29.08ZM25.7,48.19A22.49,22.49,0,1,0,3.21,25.73,22.55,22.55,0,0,0,25.7,48.19Z"/><path d="M11.23,16.18a3,3,0,0,1,1.21-2.6,16,16,0,0,0,1.16-1.16,3.62,3.62,0,0,1,5.59.32,4.72,4.72,0,0,1,.88,1.92c.28,1.11.63,2.21.87,3.33a3.4,3.4,0,0,1-1,3.16c-.35.37-.73.7-1.06,1.08a.56.56,0,0,0-.11.45,14.41,14.41,0,0,0,9.07,9.66c1.06.41,1.09.41,1.86-.43a4.4,4.4,0,0,1,2.44-1.48,4.57,4.57,0,0,1,2.06.2c1.08.29,2.18.54,3.23.91a3.74,3.74,0,0,1,2.11,5.51,17.83,17.83,0,0,1-2.16,2.29,2.75,2.75,0,0,1-1.76.79,7.87,7.87,0,0,1-1.35,0,24.65,24.65,0,0,1-9.09-2.27A24.26,24.26,0,0,1,13.15,25.29,25,25,0,0,1,11.23,16.18Z"/></svg>