<svg xmlns="http://www.w3.org/2000/svg" viewBox="0 0 682.19 210.77"><defs><style>.cls-1{fill:#fff;}</style></defs><title>Novo Site Boi Contato</title><g id="Camada_1" data-name="Camada 1"><path class="cls-1" d="M476.35,123.46c3.17-3.4-3.23-9.76-7.54-8.8-7.18,1.59-3.11,8.54,1.91,9.85a6.19,6.19,0,0,0,4.18,0A4.73,4.73,0,0,0,476.35,123.46Z"/><path class="cls-1" d="M632.35,155.09c5.68,0,10.5-5,3.34-8.88-2.45-1.33-5.57-1.83-8-.47s-3.54,5-1.67,7.09a7.72,7.72,0,0,0,3.72,1.88A9.28,9.28,0,0,0,632.35,155.09Z"/><path class="cls-1" d="M155.86,50.18a10.79,10.79,0,0,0,3.75,1.09c1.41.12,3-1.52,2.07-2.55-1.4-1.26-7.94-11.19-8.76-2.69-.17,1.81,1.09,3.15,2.71,4Z"/><circle class="cls-1" cx="624.84" cy="170.23" r="3.47" transform="translate(395.4 775.83) rotate(-84.49)"/><circle class="cls-1" cx="662.99" cy="71.95" r="1.85" transform="translate(527.71 724.98) rotate(-84.49)"/><path class="cls-1" d="M1.23,26.69c2,.68,6,.69,5.49-1.13a1.76,1.76,0,0,0-.86-.93c-1.29-.8-6.72-2-5.75,1.31C.2,26.23.63,26.49,1.23,26.69Z"/><circle class="cls-1" cx="603.27" cy="82.53" r="1.85" transform="translate(463.2 675.09) rotate(-84.49)"/><circle class="cls-1" cx="497.88" cy="104.38" r="1.85" transform="translate(346.18 589.94) rotate(-84.49)"/><path class="cls-1" d="M669.29,123.07a7.42,7.42,0,0,0,4-.51,2.06,2.06,0,0,0,1.06-.81,1.61,1.61,0,0,0-1.08-2.1c-1.45-.49-5.36-1.26-5.59,1.11A1.93,1.93,0,0,0,669.29,123.07Z"/><circle class="cls-1" cx="571.44" cy="40.67" r="0.89" transform="translate(476.08 605.57) rotate(-84.49)"/><circle class="cls-1" cx="600.74" cy="130.13" r="0.89" transform="translate(413.53 715.6) rotate(-84.49)"/><circle class="cls-1" cx="519.25" cy="87.5" r="0.89" transform="translate(382.3 595.95) rotate(-84.49)"/><circle class="cls-1" cx="33.56" cy="53.74" r="0.89" transform="translate(-23.15 81.99) rotate(-84.49)"/><circle class="cls-1" cx="656.12" cy="104.69" r="1.85" transform="matrix(0.1, -1, 1, 0.1, 488.92, 747.73)"/><path class="cls-1" d="M549.23,160.17c3.76.87,7.59-5,2.65-6.43-3.87-1.11-8.1,3.24-3.74,6A3.57,3.57,0,0,0,549.23,160.17Z"/><path class="cls-1" d="M678.43,98.9c5.61,2.18,4.33-6.69.18-6.86-5.34-.21-4.85,4.61-.79,6.59Q678.14,98.78,678.43,98.9Z"/><path class="cls-1" d="M513.87,99.87a7.64,7.64,0,0,0,3.86.72c4.16-1-6.88-11.74-7.72-4.4C509.85,97.62,511.81,99,513.87,99.87Z"/><circle class="cls-1" cx="676.7" cy="46.49" r="3.47" transform="translate(565.44 715.6) rotate(-84.49)"/><path class="cls-1" d="M574.22,97c2,1.24,4.7,1.24,6-1.15.69-1.3-.14-2.86-.94-4.09-2.34-3.6-9-2.67-7.43,2.31A5.5,5.5,0,0,0,574.22,97Z"/><path class="cls-1" d="M373.78,74.95a24.85,24.85,0,0,0,4.69.46c4.74.27-6.69-15.37-7.75-4.45C370.48,73.42,371.94,74.47,373.78,74.95Z"/><path class="cls-1" d="M432.88,166.39c1.67-.79,2.79-2.46,2-4.21-2.09-4.36-10.93-1.45-7,3.28A4.15,4.15,0,0,0,432.88,166.39Z"/><path class="cls-1" d="M592.68,204.71q-.16-.58-.39-1.2l-.15-.39c-.73-2-1.57-4.05-3.32-5.2-7.07-4.62-10.56,7-3.72,11.28C590.41,212.51,594.23,210.38,592.68,204.71Z"/><path class="cls-1" d="M509.16,152.26c8.22-.65-2.85-15.3-9.27-8.18a4.1,4.1,0,0,0-.16,5.26,6.24,6.24,0,0,0,2.66,1.58A17.29,17.29,0,0,0,509.16,152.26Z"/><circle class="cls-1" cx="537.5" cy="192.17" r="3.47" transform="translate(294.6 708.73) rotate(-84.49)"/><circle class="cls-1" cx="312.11" cy="152.89" r="3.47" transform="translate(129.96 448.88) rotate(-84.49)"/><circle class="cls-1" cx="518.48" cy="196.28" r="1.85" transform="translate(273.32 693.51) rotate(-84.49)"/><circle class="cls-1" cx="489.31" cy="39.94" r="1.85" transform="translate(402.57 523.15) rotate(-84.49)"/><circle class="cls-1" cx="614.97" cy="63.74" r="1.85" transform="translate(492.47 669.75) rotate(-84.49)"/><circle class="cls-1" cx="596.12" cy="53.85" r="1.85" transform="translate(485.28 642.04) rotate(-84.49)"/><circle class="cls-1" cx="422.72" cy="44.63" r="1.85" transform="matrix(0.1, -1, 1, 0.1, 337.71, 461.1)"/><circle class="cls-1" cx="475.22" cy="31.89" r="1.85" transform="translate(397.85 501.85) rotate(-84.49)"/><circle class="cls-1" cx="397.55" cy="147.61" r="1.85" transform="translate(212.45 529.15) rotate(-84.49)"/><circle class="cls-1" cx="414.42" cy="77.56" r="0.89" transform="translate(297.43 482.62) rotate(-84.49)"/><circle class="cls-1" cx="583.14" cy="21.89" r="0.89" transform="translate(505.36 600.23) rotate(-84.49)"/><circle class="cls-1" cx="288.02" cy="112.78" r="0.89" transform="translate(148.1 388.64) rotate(-84.49)"/><circle class="cls-1" cx="412.48" cy="36.53" r="0.89" transform="translate(336.52 443.6) rotate(-84.49)"/><circle class="cls-1" cx="439.44" cy="182.71" r="0.89" transform="translate(215.38 602.58) rotate(-84.49)"/><circle class="cls-1" cx="617.49" cy="36.97" r="0.89" transform="translate(521.39 648.06) rotate(-84.49)"/><circle class="cls-1" cx="364.01" cy="144.38" r="1.85" transform="translate(185.34 492.84) rotate(-84.49)"/><path class="cls-1" d="M436.11,105l.51.1a8.74,8.74,0,0,0,3.1-.06c7.59-1.6-5.87-12.76-6.75-3.75C432.77,103.41,434.29,104.53,436.11,105Z"/><path class="cls-1" d="M441.55,38.83c1.74.67,3.76.56,4.74-.9,2-3-.92-5.8-4-6.1a3.47,3.47,0,0,0-3.78,3.12C438.31,36.66,439.79,38.15,441.55,38.83Z"/><path class="cls-1" d="M429.43,122.44a4.46,4.46,0,0,0,4-1c4-4-4.24-7.95-7-4.3C424.54,119.7,426.8,121.93,429.43,122.44Z"/><circle class="cls-1" cx="386.22" cy="136.37" r="3.47" transform="translate(213.39 507.71) rotate(-84.49)"/><path class="cls-1" d="M611.58,51.41c.89.14,1.95-.41,3.13-2.11,3.18-4.59-3-4.88-6-4.71C607.69,44.64,608.94,51,611.58,51.41Z"/><circle class="cls-1" cx="346.29" cy="85.86" r="0.89" transform="translate(227.58 422.31) rotate(-84.49)"/><circle class="cls-1" cx="211.19" cy="88.67" r="0.89" transform="translate(102.66 290.37) rotate(-84.49)"/><circle class="cls-1" cx="316.45" cy="94.48" r="3.47" transform="translate(192.02 400.4) rotate(-84.49)"/><path class="cls-1" d="M333,117.58l.36.09a3.07,3.07,0,0,0,2.31-.49,7.29,7.29,0,0,0,2.29-3c1.82-3.82-7.51-5.38-8-.81A4.24,4.24,0,0,0,333,117.58Z"/><circle class="cls-1" cx="222.89" cy="69.88" r="0.89" transform="translate(131.93 285.03) rotate(-84.49)"/><circle class="cls-1" cx="257.24" cy="84.97" r="0.89" transform="translate(147.97 332.86) rotate(-84.49)"/><path class="cls-1" d="M251.58,98a7.74,7.74,0,0,0,.79.16,4.88,4.88,0,0,0,3.7-.67c3.09-2.64-7-9.84-7.74-2.72C248.17,96.38,249.75,97.51,251.58,98Z"/><circle class="cls-1" cx="503.01" cy="14.47" r="3.47" transform="translate(440.3 513.77) rotate(-84.49)"/><circle class="cls-1" cx="401.63" cy="105.37" r="3.47" transform="translate(258.18 495.02) rotate(-84.49)"/><path class="cls-1" d="M193.22,126.56c3,.36,7-2,5.68-5.23a14.07,14.07,0,0,0-4.39-1.6c-2.13-.34-4.11.15-4.37,2.79S191.39,126.34,193.22,126.56Z"/><circle class="cls-1" cx="304.2" cy="14.59" r="1.85" transform="translate(260.47 315.99) rotate(-84.49)"/><circle class="cls-1" cx="356.7" cy="1.85" r="1.85" transform="translate(320.61 356.73) rotate(-84.49)"/><circle class="cls-1" cx="279.04" cy="117.58" r="1.85" transform="translate(135.21 384.04) rotate(-84.49)"/><circle class="cls-1" cx="371.12" cy="95.95" r="0.89" transform="translate(239.98 456.15) rotate(-84.49)"/><circle class="cls-1" cx="362.14" cy="100.75" r="1.85" transform="translate(227.09 451.54) rotate(-84.49)"/><circle class="cls-1" cx="187.43" cy="64.99" r="1.85" transform="translate(104.74 245.31) rotate(-84.49)"/><circle class="cls-1" cx="295.91" cy="47.53" r="0.89" transform="translate(220.19 337.51) rotate(-84.49)"/><circle class="cls-1" cx="237.18" cy="64.03" r="0.89" transform="translate(150.67 293.97) rotate(-84.49)"/><circle class="cls-1" cx="169.5" cy="82.75" r="0.89" transform="translate(70.86 243.53) rotate(-84.49)"/><circle class="cls-1" cx="293.97" cy="6.49" r="0.89" transform="translate(259.28 298.48) rotate(-84.49)"/><path class="cls-1" d="M243.86,29a2,2,0,0,0,2-1.72c.24-2.11-4.29-2.24-4.39-1.55l-.4,2.62A4.53,4.53,0,0,0,243.86,29Z"/><circle class="cls-1" cx="233.84" cy="19.38" r="0.89" transform="translate(192.1 250.28) rotate(-84.49)"/><circle class="cls-1" cx="320.93" cy="152.68" r="0.89" transform="translate(138.14 457.46) rotate(-84.49)"/><path class="cls-1" d="M245.24,116.41a2.8,2.8,0,0,0,2.92-.53,2.4,2.4,0,0,0,.34-2.77c-1.49-.29-4.59-1.58-4.85,1.06A2.17,2.17,0,0,0,245.24,116.41Z"/><path class="cls-1" d="M323.08,8.72a3.59,3.59,0,0,0,3.78-3.15c.49-5.05-8-5-7.78-.13C319.19,7.64,321.15,8.75,323.08,8.72Z"/><circle class="cls-1" cx="400.61" cy="54.61" r="1.85" transform="translate(307.79 448.13) rotate(-84.49)"/><circle class="cls-1" cx="334.02" cy="59.3" r="1.85" transform="translate(242.92 386.08) rotate(-84.49)"/><circle class="cls-1" cx="129.88" cy="43.8" r="1.85" transform="translate(73.81 168.88) rotate(-84.49)"/><circle class="cls-1" cx="386.52" cy="46.56" r="1.85" transform="translate(303.07 426.82) rotate(-84.49)"/><path class="cls-1" d="M92.06,49.19A2.4,2.4,0,0,0,95,48c1.27-2.8-3.3-4.23-4.55-1.8C89.69,47.68,90.75,48.85,92.06,49.19Z"/><circle class="cls-1" cx="82.02" cy="39.19" r="0.89" transform="translate(35.14 117.06) rotate(-84.49)"/><circle class="cls-1" cx="192.05" cy="40.44" r="3.47" transform="translate(133.36 227.72) rotate(-84.49)"/><circle class="cls-1" cx="70.15" cy="57.27" r="1.85" transform="translate(6.41 121.59) rotate(-84.49)"/><path class="cls-1" d="M55.88,51.14c1.57.11,2.44-2.94.26-4.2s-2.8,1.81-1.73,3.21A2.16,2.16,0,0,0,55.88,51.14Z"/><circle class="cls-1" cx="323.79" cy="51.2" r="0.89" transform="translate(241.73 368.57) rotate(-84.49)"/><circle class="cls-1" cx="353.23" cy="49.94" r="3.47" transform="translate(269.6 396.74) rotate(-84.49)"/><ellipse class="cls-1" cx="459.28" cy="77.45" rx="3.47" ry="4.85" transform="translate(338.09 527.17) rotate(-84.49)"/><path class="cls-1" d="M277.86,79.4a8.34,8.34,0,0,0,3.41,1.07c.57-1.92,2.24-6.19.65-8-1.91-2.13-7.68-1.23-8,2C273.74,76.41,275.75,78.27,277.86,79.4Z"/></g></svg>